# xmcd
#
# Track frame offsets: 
#        150
#        20713
#        40764
#        61491
#        79636
#        100517
#        120490
#        137448
#        155561
#        176747
#        194616
#        214673
#        235996
#        258841
#        277603
#        305674
#        327665
#
# Disc length: 4678 seconds
#
# Revision: 0
# Processed by: cddbd v1.5.2PL0 Copyright (c) Steve Scherf et al.
# Submitted via: ExactAudioCopy v0.99pb5
#
DISCID=e8124411
DTITLE=Timbaland - Timbaland: Remix and Soundtrack Collection
DYEAR=2007
DGENRE=Electronic
TTITLE0=Rise Up
TTITLE1=Are You That Somebody?
TTITLE2=Man Eater
TTITLE3=Opps
TTITLE4=What About Us
TTITLE5=U Make Me Wanna
TTITLE6=Hot Boyz
TTITLE7=Go Deep
TTITLE8=Get On The Bus
TTITLE9=Sexy Black
TTITLE10=Hay Papi
TTITLE11=Say Yes
TTITLE12=Pony
TTITLE13=Disco
TTITLE14=Ice Box
TTITLE15=Say My Name
TTITLE16=One In A Million
EXTD=
EXTT0=
EXTT1=
EXTT2=
EXTT3=
EXTT4=
EXTT5=
EXTT6=
EXTT7=
EXTT8=
EXTT9=
EXTT10=
EXTT11=
EXTT12=
EXTT13=
EXTT14=
EXTT15=
EXTT16=
PLAYORDER=
